<svg width="410" height="686" viewBox="0 0 410 686" fill="none" xmlns="http://www.w3.org/2000/svg">
<rect width="166.101" height="686" rx="83.0507" fill="#114B5F"/>
<path d="M66.4999 133C29.773 133 -1.30142e-06 103.227 -2.90681e-06 66.5V66.5C-4.51219e-06 29.7731 29.7731 1.39574e-05 66.5 1.2352e-05L228.388 5.27563e-06C272.46 3.34917e-06 308.188 35.7277 308.188 79.8V79.8C308.188 109.182 284.37 133 254.988 133L66.4999 133Z" fill="#114B5F"/>
<mask id="mask0_72_34" style="mask-type:alpha" maskUnits="userSpaceOnUse" x="179" y="144" width="146" height="180">
<rect x="179.109" y="144" width="145.089" height="180" rx="50" fill="#D9D9D9"/>
</mask>
<g mask="url(#mask0_72_34)">
<rect x="163.282" y="144" width="178.503" height="45" fill="#114B5F"/>
<rect x="163.282" y="279" width="178.503" height="45" fill="black"/>
<rect x="163.282" y="234" width="178.503" height="45" fill="#114B5F"/>
<rect x="163.282" y="189" width="178.503" height="45" fill="black"/>
</g>
<path d="M346.211 171.16C339.54 167.311 339.54 157.689 346.211 153.84L394.991 125.694C401.662 121.845 410 126.656 410 134.354V190.646C410 198.344 401.662 203.155 394.991 199.306L346.211 171.16Z" fill="#114B5F"/>
<path d="M325.316 138.452C316.97 142.107 308.478 133.619 312.135 125.279L341.671 57.9205C344.499 51.4725 352.93 49.8852 357.911 54.8632L395.774 92.7033C400.755 97.6813 399.167 106.108 392.715 108.933L325.316 138.452Z" fill="#114B5F"/>
</svg>
